<svg width="220" height="59" viewBox="0 0 220 59" xmlns="http://www.w3.org/2000/svg">
  <path
    class="top"
    d="M32.38552041069556,14.034198901269292C32.38552041069556,14.915098259609067,32.3469668746655,16.040856772473944,32.270595323165594,17.41355203268995C32.19348825110552,18.75680483456813,32.081198778916246,19.704246523143638,31.934952774198166,20.25676749534216C31.7886454761001,20.808872948975477,31.538691072394954,21.27888380607351,31.18435404252267,21.66656262745596C30.644665831482087,22.218668081089277,29.73127188248418,22.58847960416597,28.445520649889204,22.774453842014736C27.158850016594045,22.96161527576453,24.851460725893048,23.054335275611265,21.522985017506016,23.054335275611265C17.424909629638478,23.054335275611265,14.701460875389103,22.868123598582315,13.353251688557862,22.49480984759839C12.004981208346692,22.121496096614692,11.20773821447898,21.338718479470117,10.961338826814824,20.144340043543252C10.776294112546623,19.293832900262146,10.660633504456484,17.257732570719554,10.614418295924452,14.034198901269292L10.614418295924452,0L1,0L1,14.034198901269292C1.0301563429678708,17.6154940554037,1.0727552420789834,19.89853113229765,1.126877296633097,20.883547571131203C1.180999351187154,21.867851692424324,1.3152931468021052,22.965058143876604,1.5314748981184039,24.173801650202222C2.1006452249466747,27.337500646255876,4.073495247520555,29.306821206382438,7.448002284299605,30.082891166688C8.97383968641708,30.42610950158837,10.768142093004485,30.663786120913983,12.83268701208226,30.798236056671385C14.897538398060135,30.93274535222372,17.83312354054482,31,21.63882950573617,31C26.708221086716662,31,30.351867355145828,30.88056809238674,32.57038124482369,30.641704277160443C34.78987582858184,30.40289982172908,36.507500216769245,29.94102125655104,37.72429639684617,29.25399098880007C39.86643873502419,28.060740388978957,41.13012435081339,26.180459521406874,41.5151693640737,23.613623264444072C41.73037042130977,22.10736846539612,41.89249141145194,18.913277254283912,42,14.034198901269292L42,0L32.38552041069556,0L32.38552041069556,14.034198901269292ZM116.6065132677677,23.232774431707867C116.25853590647614,23.369193705070984,115.82552421599553,23.45249077132314,115.31109667841895,23.48308723528271C114.79485989979582,23.513201865164206,113.1502597884579,23.536269671653372,110.37669326405637,23.55108606955514L97.00459268881053,23.55108606955514L97.00459268881053,18.418649698853642L110.37669326405637,18.418649698853642C114.07478196325849,18.433947930833483,116.09148264984219,18.486648533126072,116.42498608276117,18.577715173887782C117.36518834663207,18.804478336895272,117.83438485804413,19.569088789586203,117.83438485804413,20.871365844181128C117.83438485804413,22.128651641733086,117.42609946186678,22.914643481639814,116.6065132677677,23.232774431707867ZZM97.00459268881053,7.2901496017098L110.33025607719424,7.2901496017098C113.31731304509185,7.305809209248082,114.98483020968638,7.357606372644341,115.33401373167555,7.44915484748401C116.22777880868432,7.6912764717311575,116.67526442753751,8.426073440839332,116.67526442753751,9.652341169613464C116.67526442753751,10.847891975908396,116.30376693264054,11.58991645618812,115.56077194284649,11.877390713036675C114.99990721840777,12.105177773460355,113.25640192985708,12.218107635515935,110.33025607719424,12.218107635515935L97.00459268881053,12.218107635515935ZM124.72578400445343,16.260514863027083C124.05817405826679,15.80692830775206,123.03414362590456,15.458923644841661,121.65550194841342,15.215657664659034C123.2162738912599,14.76231202642316,124.30483392095005,14.012939576452368,124.91816663573945,12.96838352438317C125.5327055112266,11.923526326015235,125.83967340879565,10.287759860112715,125.83967340879565,8.06228871187102C125.83967340879565,6.2000000000000455,125.63884765262571,4.735224402564654,125.23719614028573,3.667961919564732C124.83554462794586,2.600699436565037,124.17215624420112,1.7791723333980372,123.24703098905172,1.2033806100641868C122.29235479680835,0.5980765494463185,120.79792169233622,0.2348941130755975,118.76795323807755,0.11383330095202382C117.87298200037105,0.053001748591441356,115.0529782891075,0.015057314940804645,110.30794210428655,0L88,0L88,31L110.37669326405643,31C115.59213212098723,30.96940353604043,118.73659305993692,30.917606372644286,119.81429764334757,30.841175442005124C121.46553163852298,30.719994171362032,122.74707737984784,30.46588692442208,123.65712562627573,30.08005828638045C124.565967712006,29.694229648338933,125.28604564854334,29.092659801826358,125.81735943588797,28.274625995725728C126.6049823714975,27.063656498931437,127,25.193718671070542,127,22.665294346221117C127,19.41008354381188,126.24192800148455,17.275438119292858,124.72578400445343,16.260514863027083ZM75.18155439767872,13.751845735379788C75.01302611462984,14.258795414804695,74.72281676078751,14.641130755780068,74.31031793079785,14.898731299786277C73.98847149854919,15.095680979211238,73.60274250413403,15.212164367592777,73.15130573149042,15.250048571983598C72.69986895884688,15.288113464153867,71.30479548220023,15.329792111909796,68.96426008548872,15.37472313969306L55.54344638232817,15.37472313969306L55.54344638232817,7.74488051292019L68.94114068203805,7.74488051292019C71.14417646875296,7.759937827860881,72.47780100464888,7.782824946570827,72.94444791114165,7.812939576452322C73.41109481763442,7.843054206333818,73.81264235125269,7.933398095978191,74.14969891735052,8.085778123178557C74.6230382827369,8.312240139887308,74.95522760600295,8.675422576257915,75.14748369785661,9.17532543229072C75.33791457364828,9.675228288323297,75.43343421422111,10.432310083543825,75.43343421422111,11.446570817952193C75.43343421422111,12.47570817952203,75.35008268072767,13.24387215853892,75.18155439767872,13.751845735379788ZZM84.5759414682849,15.03424713425295C84.85884995787967,13.9748746842821,85.00000000000006,12.316642704488004,85.00000000000006,10.060695550806258C85.00000000000006,7.381095783951764,84.778540451156,5.416417330483796,84.33440454276001,4.1678647755974225C83.89087703971802,2.918709928113458,83.07318024398614,1.9381775791723612,81.87948893950272,1.226267728774019C80.8853545911204,0.6203613755585593,79.8534991107922,0.2692247911404593,78.78331409316405,0.1704488051291264C77.7125206701819,0.0722751117154985,74.47032853889118,0.015057314940804645,69.05612929393783,0L46,0L46,31L55.54344638232817,31L55.54344638232817,23.119844569652287L68.98677108358561,23.119844569652287C70.96043805185491,23.119844569652287,72.25573305045089,23.168750728579653,72.87569810614337,23.267346026811765C73.49444635112786,23.365700408004614,73.98056222894763,23.59601709733829,74.33282892889463,23.95950068000775C74.68448722348762,24.353339809597855,74.92541574365862,24.917266368758533,75.05500608405362,25.652063337866707C75.18459642444861,26.38607732659807,75.25030420267706,27.615838352438345,75.25030420267706,29.342008937245055L75.25030420267706,31L84.65625097500856,31L84.65625097500856,28.115560520691588C84.65625097500856,25.436081212356612,84.58750117001034,23.675760637264375,84.45000156001379,22.836104526908912C84.31189354466323,21.99572566543611,83.99065551776857,21.279780454633737,83.4868958846838,20.689955313775044C82.61444260709499,19.705568292209023,81.17678075567073,19.13784728968335,79.17269351970299,18.986129784340392C80.87136126797918,18.728469011074367,82.1398864310006,18.25958422381973,82.98191944089115,17.57802992034192C83.76128669932302,16.94206916650478,84.29242457333623,16.094161647561577,84.5759414682849,15.03424713425295ZM210.42697225168888,0L210.6532438166489,23.119844569652287L209.68033610630334,23.119844569652287L193.49921835743396,0L177,0L177,31L186.57362793813854,31L186.37016358662277,7.8803963473868635L187.3880855340293,7.8803963473868635L203.63702473340402,31L219.9999999999999,31L219.9999999999999,0L210.42697225168888,0ZM144.04512483774909,18.963543811929185L150.10208444681984,7.222090538177554L152.01336183858893,7.222090538177554L158.0715431014736,18.963543811929185ZM143.67496373215238,0L127,31L137.94113155684505,31L140.63548904329235,25.754392850204L161.43475605100406,25.754392850204L164.1291135374513,31L175,31L158.55470718485145,0L143.67496373215238,0Z"
    fill="rgb(255,255,255)"
  />
  <path
    class="bottom"
    d="M149,37L149,58.999999999999886L146,58.999999999999886L146,37L149,37ZM78.68537539740771,39.57251548539159L77.48153582783078,39.57251548539159L70.45842504279773,51.77682946883726L85.64245536806067,51.77682946883726ZM87.04683296649551,54.349827331031065L69.01980924431405,54.349827331031065L66.37796527268279,58.999999999999886L63,58.999999999999886L75.64245536806067,37L80.39117143555882,37L93,58.999999999999886L89.68928833455618,58.999999999999886L87.04683296649551,54.349827331031065ZM219,47.868660300136526C218.9667316351905,52.203050477489796,218.9007997849318,53.35203274215553,218.63586262517651,54.633015006821324C217.80899253982125,58.31082673942706,215.8897103299953,59,206.1947039451577,59C202.09180724511066,59,198.41958464950602,58.83606548431112,196.69870286981654,58.57320600272851C194.58102022985418,58.24491678035474,193.09180724511054,56.99700954979539,192.62846965521874,55.125418826739406C192.23166879494596,53.51590723055938,192.00000000000006,51.02057298772172,192.00000000000006,48.0330150068213C192.00000000000006,45.14282128240109,192.23166879494596,42.54874215552513,192.66173802002828,40.93971077762626C193.48860810538343,37.722188267394245,195.73875932522344,37,204.93776463472,37C208.01478593991533,37,212.58102022985418,37.19694952251018,213.9377646347201,37.39389904502036C215.8897103299953,37.656518417462394,217.5446602594261,38.739590723055926,218.20579340009408,40.2175225102319C218.6691309899859,41.203050477489796,218.80159956986358,42.02350341064118,218.83486793467307,43.92822919508876L215.82377847973657,43.92822919508876C215.7905101149272,42.02350341064118,215.59210968479078,41.203050477489796,215.09550373008938,40.70992633014998C214.50030243968013,40.151852660300165,213.606895624706,39.922068212824,211.12507560992003,39.79078854024556C209.93406814974128,39.69228376534784,207.1213791249413,39.6266139154161,205.46703407487075,39.6266139154161C199.27911822031052,39.6266139154161,196.99630351502122,39.88923328785813,196.1028967000471,40.742761255115965C195.2754217353317,41.49826466575723,195.0110894549365,43.20550068212822,195.0110894549365,47.60628103683496C195.0110894549365,50.36399454297407,195.17622152026348,53.02374351978176,195.3746219503999,53.9110068212824C195.93715975535991,56.176376534788574,196.89710329995296,56.373326057298755,207.3530479198871,56.373326057298755C212.51448350023531,56.373326057298755,214.36783385980243,56.07787175989097,215.22857718932732,55.19084856753079C215.82377847973657,54.56710504774901,215.98891054506362,53.6144120054571,216.0554472746826,50.429904502046384L204.54096377444728,50.429904502046384L204.54096377444728,47.868660300136526L219,47.868660300136526ZM45.5596068318215,47.950556377788644L48.167063108068874,47.950556377788644C51.654595462930786,47.950556377788644,52.99109556065082,47.588050211039786,53.57741571051997,46.46622266074655C53.83839967966901,45.97154525023291,54.03383972962541,44.71778764457599,54.03383972962541,43.596683659485734C54.03383972962541,42.0463849147618,53.642959629712664,40.82560982294581,52.99109556065082,40.36391492627308C52.11101948203623,39.70444554075527,50.80729134391254,39.57251548539159,45.5596068318215,39.57251548539159L34.900795107325166,39.57251548539159L34.900795107325166,47.950556377788644ZM32,37L45.5596068318215,37C51.03550335346529,37.06596502768184,51.06767945925077,37.06596502768184,52.56744350114167,37.2637998136272C54.3275956583708,37.49461711341337,55.631323796494485,38.35198158197659,56.315959825152675,39.70444554075527C56.804559950043654,40.72666228142293,57,41.815567614975635,57,43.629666173326655C57,47.68699775256255,56.28318786555633,48.84108425149361,53.414747620159915,49.43440771802875C54.45749178913451,49.632724880776095,55.07717975241087,49.96248972208514,55.631323796494485,50.55581318862028C56.47862791551279,51.446341062325246,56.60911990008731,52.106775201447135,56.60911990008731,55.866902373513085L56.60911990008731,58.999999999999886L53.70790769509449,58.999999999999886L53.70790769509449,56.88887792577975C53.70790769509449,54.052562626760846,53.70790769509449,54.01982130132092,53.57741571051997,53.1619744559556C53.414747620159915,51.74384695499634,52.63239156652355,50.91874143507084,51.263715363018036,50.72114783752659C50.253147299828925,50.55581318862028,50.253147299828925,50.55581318862028,45.5596068318215,50.52331305158134L34.900795107325166,50.52331305158134L34.900795107325166,58.999999999999886L32,58.999999999999886L32,37ZM161.92746440604276,37L181.3372676882948,56.2955544592445L182.0371916096077,56.2955544592445L182.0371916096077,37L185.00000000000006,37L185.00000000000006,58.999999999999886L179.97272035648302,58.999999999999886L160.62864905988476,39.737428054596194L159.96280839039235,39.737428054596194L159.96280839039235,58.999999999999886L157,58.999999999999886L157,37L161.92746440604276,37ZM25,37L25,39.57251548539159L14.002709477375106,39.57251548539159L14.002709477375106,58.999999999999886L11.063337052223801,58.999999999999886L11.063337052223801,39.57251548539159L0,39.57251548539159L0,37L25,37ZM101.99999999999989,37L101.99999999999989,58.999999999999886L99,58.999999999999886L99,37L101.99999999999989,37ZM114.92746440604287,37L134.33726768829484,56.2955544592445L135.03719160960776,56.2955544592445L135.03719160960776,37L138.00000000000006,37L138.00000000000006,58.999999999999886L132.97272035648308,58.999999999999886L113.62864905988482,39.737428054596194L112.96280839039241,39.737428054596194L112.96280839039241,58.999999999999886L110,58.999999999999886L110,37L114.92746440604287,37Z"
    fill="rgb(53, 182, 90)"
  />
</svg>
